<svg xmlns="http://www.w3.org/2000/svg" width="59.441" height="75.335" viewBox="0 0 59.441 75.335">
  <defs>
    <style>
      .cls-1 {
        fill: #fff;
      }
    </style>
  </defs>
  <g id="quality" transform="translate(0)">
    <path id="XMLID_1656_" class="cls-1" d="M112.327,27.481a7.09,7.09,0,0,0-2.713-10.124,4.158,4.158,0,0,1-2.238-3.876,7.09,7.09,0,0,0-7.411-7.412,4.159,4.159,0,0,1-3.876-2.238A7.09,7.09,0,0,0,85.965,1.119a4.158,4.158,0,0,1-4.476,0A7.09,7.09,0,0,0,71.365,3.831a4.159,4.159,0,0,1-3.876,2.238,7.09,7.09,0,0,0-7.411,7.412,4.158,4.158,0,0,1-2.238,3.876,7.089,7.089,0,0,0-2.713,10.124,4.157,4.157,0,0,1,0,4.476,7.09,7.09,0,0,0,2.713,10.124,4.158,4.158,0,0,1,2.238,3.876,7.086,7.086,0,0,0,7.268,7.414L60.017,66.064a1.471,1.471,0,0,0,1.655,2.157l8.227-2.2,2.2,8.227a1.471,1.471,0,0,0,2.7.355l8.928-15.463L92.654,74.6a1.471,1.471,0,0,0,2.7-.355l2.2-8.227,8.227,2.2a1.471,1.471,0,0,0,1.655-2.157l-7.327-12.692a7.086,7.086,0,0,0,7.268-7.414,4.158,4.158,0,0,1,2.238-3.876,7.089,7.089,0,0,0,2.713-10.124A4.157,4.157,0,0,1,112.327,27.481ZM74.027,70.05l-1.666-6.217a1.471,1.471,0,0,0-1.8-1.04l-6.217,1.666,5.9-10.211a4.137,4.137,0,0,1,1.127,1.359,7.088,7.088,0,0,0,9.129,3.243Zm22.868-7.257a1.471,1.471,0,0,0-1.8,1.04L93.427,70.05l-6.466-11.2a7.088,7.088,0,0,0,9.128-3.243,4.125,4.125,0,0,1,1.128-1.358l5.894,10.209ZM109.85,33.545a4.147,4.147,0,0,1-1.587,5.922,7.109,7.109,0,0,0-3.826,6.627,4.147,4.147,0,0,1-4.335,4.335,7.115,7.115,0,0,0-6.627,3.826,4.147,4.147,0,0,1-5.922,1.587,7.083,7.083,0,0,0-3.7-1.115l-.056,0-.069,0-.077,0-.051,0a7.083,7.083,0,0,0-3.7,1.115,4.147,4.147,0,0,1-5.921-1.587,7.11,7.11,0,0,0-6.3-3.834q-.163,0-.328.008a4.147,4.147,0,0,1-4.335-4.335,7.109,7.109,0,0,0-3.826-6.627A4.147,4.147,0,0,1,57.6,33.545a7.108,7.108,0,0,0,0-7.653,4.147,4.147,0,0,1,1.587-5.922,7.109,7.109,0,0,0,3.826-6.627,4.147,4.147,0,0,1,4.335-4.335,7.111,7.111,0,0,0,6.627-3.826A4.147,4.147,0,0,1,79.9,3.6a7.109,7.109,0,0,0,7.652,0h0a4.147,4.147,0,0,1,5.921,1.587A7.109,7.109,0,0,0,100.1,9.009a4.147,4.147,0,0,1,4.335,4.335,7.109,7.109,0,0,0,3.826,6.627,4.147,4.147,0,0,1,1.587,5.921,7.108,7.108,0,0,0,0,7.653Z" transform="translate(-54.006 0.002)"/>
    <path id="XMLID_1708_" class="cls-1" d="M167.89,143.243a2.741,2.741,0,0,0,2.737,2.737h4.355a2.729,2.729,0,0,0,2.058-.938,11.013,11.013,0,0,0,4.452.938h7.545a4.785,4.785,0,0,0,4.78-4.78V134.87a4.785,4.785,0,0,0-4.78-4.78h-1.894l.747-2.19a3.987,3.987,0,0,0-7.2-3.327,13.609,13.609,0,0,1-4.163,4.362,2.72,2.72,0,0,0-1.546-.481h-4.355a2.74,2.74,0,0,0-2.737,2.737v12.053Zm15.33-17.165a1.044,1.044,0,0,1,1.885.871l-1.08,3.166a1.471,1.471,0,0,0,.272,2.917h4.74a1.839,1.839,0,0,1,1.837,1.837V141.2a1.839,1.839,0,0,1-1.837,1.837h-7.545a8.074,8.074,0,0,1-3.772-.933V131.668l.18-.114a16.566,16.566,0,0,0,5.32-5.476ZM170.833,131.4h3.944v11.569h0v.073h-3.944Z" transform="translate(-151.133 -104.582)"/>
    <path id="XMLID_1761_" class="cls-1" d="M129.77,53.985a21.561,21.561,0,0,0-9.631,2.24,1.471,1.471,0,1,0,1.3,2.639,18.648,18.648,0,0,1,8.328-1.936,18.834,18.834,0,1,1-18.834,18.834,18.647,18.647,0,0,1,1.936-8.328,1.471,1.471,0,1,0-2.639-1.3,21.563,21.563,0,0,0-2.24,9.631A21.777,21.777,0,1,0,129.77,53.985Z" transform="translate(-100.049 -46.041)"/>
    <path id="XMLID_1762_" class="cls-1" d="M149.884,97.348a1.472,1.472,0,1,0-1.04-.431A1.483,1.483,0,0,0,149.884,97.348Z" transform="translate(-134.522 -80.514)"/>
  </g>
</svg>
