<svg id="transportation" xmlns="http://www.w3.org/2000/svg" width="75.334" height="75.335" viewBox="0 0 75.334 75.335">
  <defs>
    <style>
      .cls-1 {
        fill: #fff;
      }
    </style>
  </defs>
  <g id="Group_41149" data-name="Group 41149" transform="translate(11 45)">
    <g id="Group_41148" data-name="Group 41148" transform="translate(0 0)">
      <rect id="Rectangle_3770" data-name="Rectangle 3770" class="cls-1" width="10" height="3"/>
    </g>
  </g>
  <g id="Group_41151" data-name="Group 41151" transform="translate(35.156 46.456)">
    <g id="Group_41150" data-name="Group 41150">
      <path id="Path_39189" data-name="Path 39189" class="cls-1" d="M264.05,309.25l-3.767-7.533a1.256,1.256,0,0,0-1.123-.694h-7.533v-3.767A1.256,1.256,0,0,0,250.372,296H225.261a1.256,1.256,0,0,0-1.256,1.256v22.6a1.256,1.256,0,0,0,1.256,1.256h5.2a5,5,0,0,0,9.688,0h9.145a5,5,0,0,0,9.688,0h3.945a1.256,1.256,0,0,0,1.256-1.256V309.811A1.257,1.257,0,0,0,264.05,309.25Zm-28.745,13.117a2.511,2.511,0,1,1,2.511-2.511A2.511,2.511,0,0,1,235.305,322.367Zm13.811-3.767h-8.967a5,5,0,0,0-9.688,0h-3.945V298.511h22.6Zm7.533-15.067h1.735l2.511,5.022H256.65Zm-2.511,18.833a2.511,2.511,0,1,1,2.511-2.511A2.511,2.511,0,0,1,254.138,322.367Zm7.533-3.767h-2.689a5.017,5.017,0,0,0-4.844-3.767,4.964,4.964,0,0,0-2.511.7v-12h2.511v6.278a1.256,1.256,0,0,0,1.256,1.256h6.278Z" transform="translate(-224.005 -296)"/>
    </g>
  </g>
  <g id="Group_41153" data-name="Group 41153" transform="translate(28 17)">
    <g id="Group_41152" data-name="Group 41152" transform="translate(0 0)">
      <rect id="Rectangle_3771" data-name="Rectangle 3771" class="cls-1" width="3" height="3"/>
    </g>
  </g>
  <g id="Group_41155" data-name="Group 41155" transform="translate(32 17)">
    <g id="Group_41154" data-name="Group 41154" transform="translate(0 0)">
      <rect id="Rectangle_3772" data-name="Rectangle 3772" class="cls-1" width="3" height="3"/>
    </g>
  </g>
  <g id="Group_41157" data-name="Group 41157" transform="translate(37 17)">
    <g id="Group_41156" data-name="Group 41156" transform="translate(0 0)">
      <rect id="Rectangle_3773" data-name="Rectangle 3773" class="cls-1" width="3" height="3"/>
    </g>
  </g>
  <g id="Group_41159" data-name="Group 41159" transform="translate(43 17)">
    <g id="Group_41158" data-name="Group 41158" transform="translate(0 0)">
      <rect id="Rectangle_3774" data-name="Rectangle 3774" class="cls-1" width="2" height="3"/>
    </g>
  </g>
  <g id="Group_41161" data-name="Group 41161" transform="translate(12.556)">
    <g id="Group_41160" data-name="Group 41160">
      <path id="Path_39190" data-name="Path 39190" class="cls-1" d="M136.614,20.972l-3.89-3.891a15.475,15.475,0,0,0-10.9-4.526H112.09L106.181,3.1a1.257,1.257,0,0,0-1.065-.59H101.35a1.256,1.256,0,0,0-1.218,1.56l2.121,8.484H92.239L88.741.9a1.256,1.256,0,0,0-1.2-.9H81.261A1.256,1.256,0,0,0,80,1.256V13.811h.012a1.246,1.246,0,0,0,.356.888l7.847,7.847a17.2,17.2,0,0,0,12.238,5.076h.342l-3.12,7.024a1.256,1.256,0,0,0,.638,1.657q.055.024.113.044l3.764,1.256a1.256,1.256,0,0,0,1.426-.471l6.652-9.509h23.583a3.894,3.894,0,0,0,2.758-6.651ZM104.42,5.022l4.708,7.533h-4.288l-1.883-7.533Zm-21.9-2.511H86.6l3.013,10.044h-7.1ZM102.1,34.924l-1.564-.522,4.127-9.291h4.3Zm33.044-10.673a1.365,1.365,0,0,1-1.288.861H112.029l.375-.536a1.256,1.256,0,0,0-1.029-1.975h-7.528a1.255,1.255,0,0,0-1.148.746l-.784,1.765h-1.457A14.7,14.7,0,0,1,90,20.771l-5.7-5.7h37.536a12.947,12.947,0,0,1,7.607,2.511h-9.252v2.511h12l2.662,2.662A1.348,1.348,0,0,1,135.144,24.251Z" transform="translate(-80.005)"/>
    </g>
  </g>
  <g id="Group_41163" data-name="Group 41163" transform="translate(0 35.156)">
    <g id="Group_41162" data-name="Group 41162" transform="translate(0)">
      <path id="Path_39191" data-name="Path 39191" class="cls-1" d="M30.782,260.744a5.017,5.017,0,0,0-3-1.553l4.794-13.424a1.257,1.257,0,0,0-.762-1.606l-.023-.008-3.062-1.021-2.378-13.079a1.256,1.256,0,0,0-1.235-1.031H20.093v-3.767A1.256,1.256,0,0,0,18.838,224H13.815a1.256,1.256,0,0,0-1.256,1.256v3.767H7.538A1.256,1.256,0,0,0,6.3,230.053L3.924,243.133.863,244.153a1.257,1.257,0,0,0-.793,1.591l.008.023,4.794,13.425a5.019,5.019,0,0,0-3,1.553A2.44,2.44,0,0,1,0,261.667v2.511a4.875,4.875,0,0,0,3.574-1.588,2.44,2.44,0,0,1,1.872-.923,2.06,2.06,0,0,1,.775.145c.011,0,.017.015.028.019a3.885,3.885,0,0,1,1.057.774,4.937,4.937,0,0,0,3.585,1.574,4.873,4.873,0,0,0,3.572-1.588,2.353,2.353,0,0,1,3.736,0,4.868,4.868,0,0,0,3.57,1.589,4.928,4.928,0,0,0,3.581-1.574,3.888,3.888,0,0,1,1.048-.77c.011,0,.019-.015.03-.02a2.05,2.05,0,0,1,.778-.146,2.43,2.43,0,0,1,1.867.923,4.871,4.871,0,0,0,3.571,1.588v-2.511A2.43,2.43,0,0,1,30.782,260.744ZM15.071,226.511h2.511v2.511H15.071Zm0,32.808a5.406,5.406,0,0,0-2.306,1.425,2.357,2.357,0,0,1-3.74,0,7.13,7.13,0,0,0-1.288-1L2.873,246.13l12.2-4.065Zm.858-20.188-9.288,3.1,1.944-10.694H24.068l1.944,10.694-9.288-3.1A1.258,1.258,0,0,0,15.929,239.131Zm8.985,20.623a7.152,7.152,0,0,0-1.273.991,2.35,2.35,0,0,1-3.732,0,5.375,5.375,0,0,0-2.326-1.432V242.064l12.2,4.065Z" transform="translate(-0.004 -224)"/>
    </g>
  </g>
  <g id="Group_41165" data-name="Group 41165" transform="translate(48 17)">
    <g id="Group_41164" data-name="Group 41164" transform="translate(0 0)">
      <rect id="Rectangle_3775" data-name="Rectangle 3775" class="cls-1" width="3" height="3"/>
    </g>
  </g>
</svg>
